<?xml version="1.0" encoding="UTF-8" standalone="no"?>
<svg
   xmlns:dc="http://purl.org/dc/elements/1.1/"
   xmlns:cc="http://creativecommons.org/ns#"
   xmlns:rdf="http://www.w3.org/1999/02/22-rdf-syntax-ns#"
   xmlns:svg="http://www.w3.org/2000/svg"
   xmlns="http://www.w3.org/2000/svg"
   viewBox="0 0 147.992 140.58533"
   height="140.58533"
   width="147.992"
   xml:space="preserve"
   id="svg2"
   version="1.1"><metadata
     id="metadata8"><rdf:RDF><cc:Work
         rdf:about=""><dc:format>image/svg+xml</dc:format><dc:type
           rdf:resource="http://purl.org/dc/dcmitype/StillImage" /></cc:Work></rdf:RDF></metadata><defs
     id="defs6"><clipPath
       id="clipPath18"
       clipPathUnits="userSpaceOnUse"><path
         id="path16"
         d="M 0,105.439 H 110.994 V 0 H 0 Z" /></clipPath></defs><g
     transform="matrix(1.3333333,0,0,-1.3333333,0,140.58533)"
     id="g10"><g
       id="g12"><g
         clip-path="url(#clipPath18)"
         id="g14"><g
           transform="translate(7.4302,54.8326)"
           id="g20"><path
             id="path22"
             style="fill:#ffffff;fill-opacity:1;fill-rule:nonzero;stroke:none"
             d="M 0,0 C 0,25.865 21.012,46.832 46.933,46.832 72.854,46.832 93.532,25.865 93.532,0 93.532,-25.865 72.854,-46.832 46.933,-46.832 21.012,-46.832 0,-25.865 0,0" /></g><g
           transform="translate(7.6338,54.8331)"
           id="g24"><path
             id="path26"
             style="fill:#d91920;fill-opacity:1;fill-rule:nonzero;stroke:none"
             d="m 0,0 c 0,-12.876 5.23,-24.533 13.687,-32.971 8.457,-8.438 20.138,-13.656 33.043,-13.656 25.807,0 46.393,20.872 46.395,46.627 C 93.123,25.755 72.537,46.627 46.73,46.63 33.825,46.63 22.144,41.41 13.687,32.972 5.23,24.534 0,12.876 0,0 m -0.407,0 c 0,25.979 21.102,47.035 47.137,47.035 C 59.744,47.037 71.449,41.77 79.894,33.26 88.34,24.748 93.53,12.988 93.53,0 93.53,-12.987 88.34,-24.747 79.894,-33.259 71.449,-41.771 59.744,-47.034 46.73,-47.034 20.695,-47.034 -0.407,-25.979 -0.407,0" /></g><g
           transform="translate(13.2056,54.8335)"
           id="g28"><path
             id="path30"
             style="fill:#d91920;fill-opacity:1;fill-rule:nonzero;stroke:none"
             d="m 0,0 c 0,-11.323 4.586,-21.561 12.006,-28.985 7.421,-7.419 17.66,-12.004 28.985,-12.006 11.321,0.002 21.561,4.587 28.983,12.006 C 77.393,-21.561 81.98,-11.323 81.98,0 81.98,11.323 77.393,21.562 69.974,28.983 62.552,36.404 52.312,40.989 40.991,40.989 29.666,40.989 19.427,36.404 12.006,28.983 4.586,21.562 0,11.323 0,0 M -2.866,0 C -2.864,24.222 16.77,43.854 40.991,43.854 65.21,43.854 84.843,24.222 84.845,0 84.843,-24.221 65.21,-43.854 40.991,-43.856 16.77,-43.854 -2.864,-24.221 -2.866,0" /></g><g
           transform="translate(86.6953,13.1836)"
           id="g32"><path
             id="path34"
             style="fill:#d91920;fill-opacity:1;fill-rule:nonzero;stroke:none"
             d="m 0,0 c 0.336,0 0.636,0.024 0.636,0.426 0,0.324 -0.294,0.384 -0.57,0.384 h -0.54 V 0 Z M -0.474,-1.469 H -0.869 V 1.146 H 0.126 C 0.744,1.146 1.05,0.918 1.05,0.402 1.05,-0.065 0.756,-0.27 0.372,-0.317 L 1.116,-1.469 H 0.672 l -0.69,1.133 h -0.456 z m 0.481,-0.582 c 1.025,0 1.835,0.804 1.835,1.896 0,1.073 -0.81,1.883 -1.835,1.883 -1.038,0 -1.848,-0.81 -1.848,-1.883 0,-1.092 0.81,-1.896 1.848,-1.896 m -2.304,1.896 c 0,1.301 1.056,2.26 2.304,2.26 1.234,0 2.29,-0.959 2.29,-2.26 0,-1.314 -1.056,-2.274 -2.29,-2.274 -1.248,0 -2.304,0.96 -2.304,2.274" /></g><path
           id="path36"
           style="fill:#1b458f;fill-opacity:1;fill-rule:nonzero;stroke:none"
           d="m 87.977,59.849 h 3.675 v 1.35 H 87.977 Z M 74.935,45.837 c 1.507,-0.004 2.16,-1.077 2.164,-2.478 0,-0.078 -0.004,-0.157 -0.007,-0.242 l -4.572,0.041 c 0.116,1.332 1.001,2.682 2.415,2.679 m 3.934,-6.951 c -0.776,-0.819 -1.541,-1.503 -2.647,-1.503 -0.056,0 -0.112,0.002 -0.166,0.005 -3.141,0.19 -3.574,2.559 -3.579,5.26 l 5.521,-0.041 c 0.597,0.002 0.841,0.077 0.841,0.866 -0.003,1.759 -1.511,2.985 -3.604,2.99 -2.481,-0.007 -4.476,-1.859 -4.48,-5.153 0.004,-3.355 1.978,-5.209 4.48,-5.214 1.025,0.002 1.739,0.139 1.901,0.232 l 2.407,2.502 z m -35.997,6.885 c 1.506,-0.004 2.158,-1.079 2.162,-2.48 0,-0.078 -0.002,-0.158 -0.004,-0.24 l -4.573,0.039 c 0.116,1.332 1,2.681 2.415,2.681 m 1.285,-8.455 c -0.055,0 -0.111,0.002 -0.164,0.004 -3.14,0.189 -3.575,2.56 -3.58,5.261 l 5.521,-0.041 c 0.598,0.003 0.84,0.076 0.84,0.865 -0.002,1.759 -1.508,2.987 -3.603,2.991 -2.482,-0.006 -4.474,-1.859 -4.48,-5.153 0.006,-3.355 1.977,-5.21 4.48,-5.214 1.027,0.002 1.74,0.14 1.9,0.232 l 2.408,2.503 -0.674,0.054 c -0.777,-0.817 -1.541,-1.502 -2.648,-1.502 m 39.84,-0.883 v 0 h -0.059 z m -5.22,0.043 v 0 0.005 z m 3.843,7.853 -0.279,-0.449 v 2.42 l -0.487,0.182 -0.013,-0.039 -0.017,0.039 c -0.811,-0.368 -2.002,-0.696 -2.953,-0.817 l -0.037,-0.506 c 0.615,-0.041 1.226,-0.143 1.755,-0.406 l -0.023,-7.432 -1.797,-0.306 -0.033,-0.582 5.302,-0.041 0.041,0.582 -1.822,0.388 0.033,5.04 c 0.002,0.344 0.944,2.673 2.047,2.675 0.24,0.002 0.589,-0.179 0.802,-0.339 l 0.541,-0.052 0.391,1.378 c -0.354,0.304 -1.18,0.353 -1.602,0.355 -1.097,-0.006 -1.412,-1.26 -1.849,-2.09 M 58.222,65.046 c -0.34,0.292 -1.125,0.339 -1.528,0.341 -1.045,-0.006 -1.345,-1.202 -1.76,-1.989 l -0.264,-0.421 0.002,2.294 -0.464,0.177 -0.013,-0.04 -0.018,0.038 c -0.771,-0.349 -1.906,-0.662 -2.809,-0.778 l -0.035,-0.483 c 0.585,-0.041 1.166,-0.139 1.668,-0.389 l -0.022,-7.067 -1.707,-0.291 -0.035,-0.554 h 0.042 v -10e-4 h 0.13 l 4.876,-0.042 0.041,0.557 -1.736,0.372 0.035,4.792 c 0,0.327 0.897,2.541 1.944,2.543 0.227,0.002 0.559,-0.169 0.761,-0.321 l 0.518,-0.051 z m -9.124,-9.163 v -0.001 l -0.056,0.001 z m -3.265,0.846 -1.707,-0.29 -0.035,-0.557 5.048,-0.041 0.041,0.557 -1.736,0.372 0.033,4.792 c 0.002,0.327 0.902,2.542 1.946,2.544 0.227,0.001 0.558,-0.17 0.761,-0.323 l 0.517,-0.05 0.375,1.313 c -0.34,0.29 -1.125,0.339 -1.53,0.342 -1.043,-0.007 -1.343,-1.202 -1.758,-1.99 l -0.262,-0.421 v 2.294 l -0.464,0.176 -0.012,-0.039 -0.019,0.039 c -0.771,-0.35 -1.906,-0.663 -2.809,-0.779 l -0.035,-0.482 c 0.585,-0.041 1.166,-0.14 1.67,-0.389 z m -5.59,8.123 c 1.425,-0.002 2.041,-1.017 2.045,-2.343 0,-0.074 -0.002,-0.152 -0.004,-0.229 l -4.325,0.038 c 0.109,1.262 0.946,2.536 2.284,2.534 m 0.282,-9.224 c 0.974,0 1.648,0.131 1.802,0.219 l 2.283,2.374 -0.642,0.053 c -0.738,-0.774 -1.462,-1.423 -2.51,-1.423 -0.051,0 -0.103,0 -0.154,0.005 -2.972,0.179 -3.382,2.42 -3.387,4.979 h 0.062 l 5.164,-0.04 c 0.566,0 0.799,0.074 0.799,0.822 -0.004,1.667 -1.431,2.83 -3.417,2.832 -2.351,-0.004 -4.238,-1.76 -4.244,-4.883 0.006,-3.177 1.875,-4.933 4.244,-4.938 m -17.021,0.254 -0.05,0.001 h 0.05 z m 13.707,0.001 v -0.001 l -0.062,0.001 z m -5.43,0.042 v 0 0.006 z m -8.195,0.478 -1.794,0.373 0.999,10.795 0.093,0.266 4.811,-11.605 0.266,-0.025 4.678,11.507 0.129,-0.237 0.922,-10.744 -1.916,-0.289 -0.034,-0.562 5.512,-0.041 0.041,0.562 -1.675,0.373 -1.198,11.924 1.877,0.286 -0.006,0.041 0.041,0.004 -0.022,0.478 -4.094,0.039 -4.089,-9.944 -4.147,9.92 -4.165,0.024 -0.063,-0.517 2.04,-0.376 -1.146,-11.916 -1.579,-0.295 -0.032,-0.562 4.51,-0.041 z m 34.798,7.823 h -10e-4 l 10e-4,0.005 z M 58.18,55.925 h -10e-4 l 10e-4,0.014 z m 1.775,0.732 -1.782,-0.29 -0.035,-0.485 5.109,-0.041 v 0.041 h 0.041 v 0.444 l -1.778,0.372 0.032,8.573 -0.38,0.176 c -0.787,-0.35 -1.899,-0.663 -2.785,-0.779 l -0.035,-0.482 c 0.575,-0.041 1.143,-0.14 1.636,-0.389 z m 8.553,3.77 v -0.643 l -0.042,-2.141 c -0.59,-0.367 -1.506,-0.843 -2.054,-0.841 -0.725,0.002 -1.48,0.513 -1.482,1.184 -0.006,1.32 1.408,1.696 3.578,2.441 m 0,0.042 v -0.012 c -0.178,-0.056 -0.344,-0.109 -0.511,-0.162 0.168,0.057 0.333,0.113 0.511,0.174 m -0.072,-4.65 c -0.001,0 -0.012,-0.002 -0.012,-0.002 l 0.023,0.289 z m -3.099,-0.025 h 0.045 c 1.189,0.03 2.151,0.478 3.06,1.191 l -0.05,-1.205 c 0.002,-0.002 0.007,-0.003 0.016,-0.003 0.005,0 0.02,0.003 0.026,0.004 v -0.004 c 0,0 0.027,0.006 0.037,0.008 0.367,0.042 2.278,0.474 3.14,0.635 l 0.06,0.01 -0.296,0.46 -1.395,0.145 0.002,5.973 c -0.002,1.727 -0.749,2.511 -1.957,2.513 -0.056,0 -0.114,0.002 -0.173,0.002 -0.172,0 -0.354,-0.011 -0.515,-0.105 L 65.148,64.11 c -0.222,-0.144 -1.005,-0.571 -1.04,-0.951 l -0.074,-1.086 0.15,-0.116 1.142,0.229 c 0.142,0.032 0.348,0.024 0.348,0.261 v 0.033 c -0.01,0.188 -0.021,0.37 -0.021,0.542 0.007,0.761 0.185,1.329 1.561,1.525 0.051,0.008 0.1,0.013 0.149,0.013 0.691,-0.005 1.1,-0.732 1.102,-2.139 V 60.979 C 67.526,60.687 66.497,60.283 65.398,59.916 64.566,59.647 63.276,59.25 63.276,57.6 c 0.004,-0.779 0.893,-1.804 2.061,-1.806 m -4.732,12.065 c 0.458,0 0.894,0.369 0.896,0.87 -0.002,0.513 -0.382,0.973 -0.896,0.975 -0.499,-0.004 -0.86,-0.499 -0.86,-0.975 0.002,-0.467 0.417,-0.87 0.86,-0.87 M 87.95,55.954 v 0 h -0.051 z m -5.645,0 v 0 h -0.052 z m -5.719,0 v 0 h -0.052 z m -4.587,0.043 h -10e-4 l 10e-4,0.01 z m -0.044,8.336 h -0.002 l 0.002,0.011 z m 14.607,-1.99 c 0.006,1.949 -0.979,3.051 -3.048,3.106 -0.009,0.002 -0.019,0.002 -0.03,0.002 -0.251,0 -0.651,-0.1 -1.213,-0.538 l -1.448,-1.238 c -0.519,0.984 -1.507,1.753 -2.671,1.756 -0.764,0.002 -1.043,-0.105 -1.641,-0.575 L 75.126,63.96 v 1.311 l -0.445,0.176 c -0.771,-0.35 -1.857,-0.663 -2.724,-0.779 l -0.045,-0.374 c 0.563,-0.043 1.118,-0.141 1.602,-0.391 l -0.013,-7.15 -1.511,-0.292 -0.033,-0.507 4.67,-0.041 0.041,0.46 -1.574,0.421 0.032,6.408 c 0.686,0.525 1.469,1.153 2.295,1.151 1.752,-0.002 1.795,-1.773 1.797,-3.337 v -4.263 l -1.511,-0.339 -0.031,-0.46 4.67,-0.041 0.041,0.46 -1.574,0.421 0.032,6.428 c 0.669,0.493 1.568,1.009 2.405,1.009 1.576,-0.005 1.685,-1.334 1.688,-2.74 0,-0.238 -0.001,-0.475 -0.001,-0.71 v -4.028 l -1.511,-0.339 -0.033,-0.46 4.6,-0.041 0.041,0.46 -1.503,0.421 z M 70.581,38.344 70.525,38.29 c -0.451,-0.452 -1.147,-1.151 -1.707,-1.147 -1.068,0.024 -1.484,0.758 -1.49,2.098 0,0.06 0,0.119 0.004,0.177 v 5.344 h 0.069 l 2.843,-0.04 0.041,0.994 -2.994,0.041 0.041,2.546 -0.513,0.041 C 66.41,46.915 65.278,46.068 64.176,45.27 L 64.157,44.763 H 64.2 v -10e-4 -0.04 h 1.417 L 65.576,38.6 c 0.002,-1.916 1.236,-2.603 2.342,-2.607 0.043,0 0.084,0.002 0.128,0.002 1.565,0.078 2.643,1.636 2.645,1.638 l -0.096,0.635 z m -32.052,11.327 -0.116,0.031 0.117,-0.029 z m -1.827,0.953 v 10e-4 l 0.056,-10e-4 z M 23.737,49.591 h 0.002 l 0.127,-0.402 z m 1.692,0.945 h 0.002 l -0.004,-0.024 z m 16.058,-0.434 0.031,0.523 -4.857,0.04 -0.041,-0.524 1.896,-0.507 -0.283,-0.809 -3.18,-8.985 c -0.346,1.038 -2.953,8.889 -3.131,9.555 l 0.244,0.381 1.584,0.236 0.035,0.572 -5.253,0.034 0.002,-0.041 h -0.043 v -0.53 l 1.439,-0.33 0.262,-0.478 c -0.181,-0.674 -2.904,-8.405 -3.27,-9.444 l -3.146,9.807 0.093,0.025 1.531,0.379 0.072,0.569 -0.04,10e-4 v 10e-4 l -0.193,0.001 -5.233,0.053 -0.051,-0.535 1.869,-0.463 4.312,-13.617 0.66,-0.03 3.927,10.834 3.642,-10.765 0.701,-0.033 4.761,13.637 z M 53.014,46.37 c -0.324,0 -0.623,-0.061 -0.937,-0.102 l -1.668,-1.063 0.242,-0.202 c 0.451,0.137 0.902,0.217 1.332,0.217 2.324,-0.004 3.355,-2.16 3.357,-4.347 -0.002,-2.269 -0.994,-4.189 -3.039,-4.193 -1.345,0.002 -2.146,0.928 -2.148,2.266 v 13.31 L 49.741,52.44 C 48.902,52.069 47.884,51.743 46.939,51.62 L 46.917,51.239 C 47.527,51.2 47.964,51.1 48.495,50.836 L 48.458,40.217 c 0,-0.48 0.004,-0.953 0.004,-1.429 0,-0.846 -0.012,-1.696 -0.074,-2.588 l 0.379,-0.205 0.768,0.743 c 0.635,-0.382 1.438,-0.683 2.171,-0.685 3.626,0.006 5.198,2.608 5.202,5.432 -0.004,3.19 -1.437,4.88 -3.894,4.885 m 4.582,-6.817 -10e-4,0.004 0.059,-0.004 z m 1.53,4.511 c 0,1.109 0.801,1.793 1.731,1.795 1.28,-0.002 1.897,-0.986 1.901,-2.287 l 0.694,-0.041 0.078,2 h -0.041 l 0.027,0.032 c -0.793,0.707 -1.683,0.903 -2.695,0.903 -1.568,-0.004 -3.029,-1.084 -3.031,-2.912 0.023,-3.802 4.951,-2.175 4.908,-4.757 -0.004,-1.195 -0.746,-2.039 -1.912,-2.042 h -0.052 c -1.463,0.029 -2.373,1.234 -2.412,2.8 l -0.768,0.039 0.003,-0.041 h -0.003 l 0.018,-0.195 0.201,-2.639 c 0.89,-0.509 1.868,-0.642 2.823,-0.642 1.824,0.004 3.637,1.008 3.639,3.209 -0.02,3.654 -5.154,2.589 -5.109,4.778" /></g></g></g></svg>